<?xml version="1.0" encoding="UTF-8"?> <svg xmlns="http://www.w3.org/2000/svg" width="770" height="150" viewBox="0 0 770 150" fill="none"> <path d="M119.914 97.2492C122.238 97.2492 123.401 100.224 123.401 106.173C123.145 110.403 121.786 114.494 119.462 118.039C116.63 122.774 113.068 127.031 108.906 130.647C104.575 134.467 99.7138 137.635 94.4748 140.057C89.6408 142.407 84.3508 143.666 78.9788 143.744C72.1348 143.744 67.5508 137.73 65.2268 125.701C61.8788 131.18 57.3308 135.823 51.9258 139.28C45.3348 143.143 37.7618 144.999 30.1348 144.616C26.0778 144.792 22.0278 144.12 18.2438 142.645C14.4588 141.169 11.0218 138.924 8.14976 136.047C5.45776 133.351 3.34677 130.125 1.94777 126.577C0.548766 123.029 -0.109233 119.233 0.0147673 115.42C0.0147673 93.4332 7.31077 76.1032 21.9028 63.4272C26.9318 58.8202 32.8238 55.2592 39.2388 52.9522C44.7268 51.2492 50.4418 50.4012 56.1878 50.4282C61.2238 50.2662 66.2208 51.3782 70.7148 53.6612C72.5228 49.9132 74.5878 48.0372 76.9128 48.0372C79.3488 48.1182 81.7458 48.6822 83.9618 49.6962C86.1788 50.7132 88.1718 52.1582 89.8258 53.9532C93.2168 56.6602 95.3988 60.6012 95.8958 64.9162C93.5708 70.1842 90.9178 75.3022 87.9538 80.2412C86.7608 88.5282 86.2428 96.8962 86.4038 105.268C86.4038 116.044 87.7598 121.434 90.4718 121.434C93.8288 121.434 101.965 114.708 114.878 101.258C117.202 98.5852 118.881 97.2492 119.914 97.2492ZM28.4888 109.016C28.4888 118.975 32.1688 123.955 39.5288 123.955C47.4058 123.826 53.9268 119.623 59.0928 111.346C61.0788 108.09 62.5788 104.559 63.5478 100.868C63.3348 88.3412 64.6358 75.8352 67.4218 63.6202C56.9648 65.6892 47.4158 70.9812 40.1108 78.7522C36.2568 82.7682 33.2438 87.5142 31.2478 92.7102C29.2518 97.9072 28.3138 103.453 28.4888 109.016Z" fill="#C8C9CB"></path> <path d="M205.335 84.3181C205.335 80.0071 202.882 77.8531 197.975 77.8531C194.617 77.8531 190.873 81.0851 186.74 87.5511C182.63 94.0261 179.619 101.139 177.83 108.602V108.989C177.861 113.588 178.546 118.161 179.864 122.57C180.924 125.708 181.606 128.968 181.898 132.268C181.898 136.579 176.41 140.891 165.433 145.202C164.019 145.792 162.51 146.121 160.978 146.172C159.459 146.213 157.97 145.735 156.757 144.819C155.543 143.903 154.675 142.604 154.296 141.128C152.913 136.705 152.291 132.082 152.456 127.451C152.456 121.695 152.617 116.305 152.94 111.285C153.262 106.261 153.585 101.543 153.909 97.1232C154.231 92.8122 154.554 88.9961 154.877 85.6751C155.2 82.3581 155.361 79.6742 155.361 77.6262C155.361 73.3142 153.36 71.1602 149.357 71.1602C145.353 71.1602 140.705 75.8481 135.41 85.2241C130.116 94.5991 127.469 102.038 127.469 107.533C127.421 112.682 128.106 117.808 129.502 122.764C130.562 125.905 131.245 129.161 131.536 132.462C131.536 136.773 126.048 141.084 115.072 145.395C113.657 145.986 112.148 146.315 110.617 146.366C109.099 146.403 107.613 145.921 106.401 145.005C105.188 144.093 104.319 142.794 103.934 141.322C102.487 136.281 101.866 131.04 102.094 125.803C101.785 112.509 102.497 99.2161 104.225 86.0311C106.215 73.8641 110.7 62.2361 117.396 51.8871C118.099 50.4211 119.16 49.1531 120.48 48.2061C121.8 47.2571 123.337 46.6531 124.95 46.4561C129.255 46.4561 133.193 49.9502 136.766 56.9312C137.702 58.5352 138.48 60.2242 139.09 61.9752C141.57 58.4502 144.843 55.5601 148.646 53.5391C152.449 51.5141 156.674 50.4182 160.978 50.3372C166.455 50.3092 171.755 52.2731 175.893 55.8661C177.956 57.5311 179.611 59.6441 180.73 62.0491C181.849 64.4541 182.403 67.0831 182.35 69.7361V71.8691C185.664 67.3141 190.005 63.6031 195.02 61.0421C200.034 58.4811 205.581 57.1381 211.211 57.1271C214.086 56.9211 216.974 57.2972 219.703 58.2302C222.431 59.1632 224.944 60.6352 227.094 62.5582C228.862 64.3022 230.255 66.3882 231.188 68.6912C232.121 70.9912 232.573 73.4601 232.518 75.9431C232.559 80.7531 232.169 85.5601 231.355 90.3021C230.581 94.6131 229.709 98.6191 228.74 102.327C227.772 106.034 226.901 109.365 226.125 112.32C225.464 114.528 225.074 116.807 224.963 119.11C224.963 120.725 225.48 121.536 226.513 121.536C229.25 121.156 231.778 119.857 233.68 117.849C236.521 115.389 239.361 112.706 242.202 109.796L250.047 101.746C252.523 99.2232 254.192 97.9641 255.05 97.9641C256.858 97.9641 257.764 100.118 257.764 104.43C257.764 113.483 253.211 122.279 244.107 130.813C236.479 138.757 226.052 143.398 215.052 143.747C205.755 143.747 201.106 135.277 201.106 118.334C201.296 112.398 202.009 106.489 203.237 100.678C204.387 95.2952 205.089 89.8201 205.335 84.3181Z" fill="#C8C9CB"></path> <path d="M311.869 126.673C307.52 132.273 301.957 136.811 295.597 139.936C289.237 143.063 282.249 144.698 275.163 144.715C260.896 144.715 250.209 141.062 243.107 133.752C239.602 130.163 236.866 125.892 235.067 121.208C233.268 116.52 232.445 111.514 232.647 106.497C232.238 91.8673 237.436 77.6373 247.175 66.7283C251.962 61.2573 257.905 56.9223 264.57 54.0393C271.239 51.1523 278.464 49.7883 285.719 50.0433C291.652 49.8263 297.568 50.7483 303.155 52.7603C310.773 55.8633 314.582 58.7743 314.582 61.4873C314.582 63.6453 309.254 64.7243 298.603 64.7243C293.626 64.6323 288.688 65.5653 284.088 67.4683C279.492 69.3713 275.333 72.2003 271.87 75.7823C268.311 79.4253 265.523 83.7533 263.678 88.5023C261.829 93.2543 260.961 98.3293 261.12 103.423C260.954 108.776 262.786 114 266.252 118.07C268.094 120.089 270.367 121.663 272.898 122.68C275.428 123.701 278.155 124.135 280.879 123.956C286.337 124.156 291.74 122.812 296.472 120.075C292.035 117.168 288.433 113.152 286.021 108.423C283.61 103.691 282.47 98.4173 282.718 93.1123C282.629 86.7923 285.031 80.6933 289.4 76.1343C291.601 73.6383 294.318 71.6533 297.361 70.3143C300.404 68.9743 303.704 68.3123 307.028 68.3773C314.192 68.3773 319.328 70.3483 322.425 74.2933C325.671 78.7603 327.309 84.1973 327.075 89.7163C326.947 96.5783 325.43 103.342 322.622 109.6H323.782C329.223 109.556 334.446 107.457 338.405 103.715C339.955 102.165 341.281 100.805 342.377 99.6413C342.77 99.1493 343.259 98.7423 343.815 98.4413C344.368 98.1423 344.979 97.9553 345.606 97.8943C347.414 97.8943 348.317 100.052 348.317 104.363C348.564 107.657 348.062 110.964 346.858 114.037C345.65 117.11 343.764 119.872 341.346 122.114C337.109 125.804 331.685 127.836 326.075 127.836C321.312 127.907 316.557 127.517 311.869 126.673ZM310.125 104.041C312.198 99.8083 313.3 95.1713 313.355 90.4593C313.355 86.1483 311.933 83.9943 309.094 83.9943C307.931 83.9943 306.964 84.8353 306.187 86.5143C305.454 88.0273 305.058 89.6823 305.027 91.3653C304.956 93.7363 305.373 96.0933 306.252 98.2983C307.127 100.5 308.446 102.497 310.125 104.17V104.041Z" fill="#C8C9CB"></path> <path d="M750.629 144.682C761.327 144.682 770.001 135.995 770.001 125.283C770.001 114.567 761.327 105.884 750.629 105.884C739.93 105.884 731.26 114.567 731.26 125.283C731.26 135.995 739.93 144.682 750.629 144.682Z" fill="#8CD7F8"></path> <path d="M550.828 100.803C552.979 100.803 554.054 103.778 554.054 109.727C553.739 113.927 552.338 117.973 549.987 121.464C547.158 126.203 543.593 130.456 539.431 134.075C535.103 137.898 530.242 141.067 525.001 143.485C520.354 145.775 515.266 147.033 510.086 147.169C506.155 147.389 502.25 146.443 498.852 144.455C496.084 142.613 493.855 140.069 492.393 137.081C490.243 132.77 488.435 124.398 486.973 111.959C486.169 103.245 484.747 94.6021 482.709 86.0911C479.49 85.5111 476.464 84.1441 473.896 82.1161C472.702 81.2681 471.725 80.1421 471.057 78.8361C470.389 77.5301 470.046 76.0811 470.056 74.6131C469.951 73.2561 470.28 71.8961 470.993 70.7361C471.705 69.5761 472.767 68.6701 474.025 68.1471C476.871 66.8111 479.985 66.1501 483.129 66.2071C486.372 66.1601 489.564 67.0351 492.329 68.7311C495.88 65.8821 498.869 62.3951 501.145 58.4461C503.577 53.3071 504.689 47.6391 504.371 41.9571C504.503 38.8501 503.947 35.7501 502.742 32.8801C501.535 30.0141 499.71 27.45 497.4 25.37C492.943 21.212 486.186 19.1291 477.126 19.1291C470.182 18.8981 463.242 19.6171 456.495 21.2621C452.275 22.4731 448.161 24.0301 444.195 25.9201C440.773 27.6021 437.74 29.1521 435.091 30.5771C432.822 31.8971 430.258 32.629 427.635 32.711C425.312 32.711 424.148 31.9681 424.148 30.4791C424.715 27.7721 425.983 25.2621 427.829 23.2031C430.885 19.3021 434.545 15.9171 438.677 13.1791C450.566 4.78407 464.806 0.381092 479.354 0.605092C492.352 0.160092 505.242 3.13509 516.735 9.23809C522.155 12.1551 526.643 16.5371 529.692 21.8901C532.738 27.2431 534.224 33.3451 533.976 39.5021C534.458 49.4911 531.368 59.3281 525.259 67.2421C519.506 74.4841 511.864 79.9891 503.177 83.1511C505.171 87.5871 506.762 92.1971 507.922 96.9261C509.15 101.837 510.344 106.366 511.507 110.504C512.44 114.069 513.773 117.519 515.476 120.785C515.914 121.901 516.653 122.875 517.613 123.594C518.57 124.313 519.709 124.751 520.9 124.859C523.831 124.5 526.561 123.17 528.647 121.077C531.683 118.557 534.685 115.806 537.657 112.831C540.625 109.856 543.274 107.109 545.598 104.588C548.05 102.065 549.794 100.803 550.828 100.803ZM466.569 30.964C468.249 30.964 469.086 33.1211 469.086 37.4321C469.1 41.5811 468.842 45.7291 468.313 49.8471C467.241 56.9131 465.752 63.907 463.856 70.8C459.209 88.388 456.882 98.6691 456.882 101.644V130.161C457.16 133.078 456.549 136.009 455.131 138.573C453.714 141.134 451.556 143.207 448.941 144.52L441.872 147.752C439.464 148.817 436.852 149.347 434.219 149.302C428.796 149.302 426.085 143.064 426.085 130.582C426.72 114.5 429.654 98.591 434.803 83.344C438.982 68.137 445.101 53.5311 453.008 39.8881C454.592 37.6291 456.481 35.6041 458.625 33.8741C460.837 31.9781 463.659 30.947 466.569 30.964Z" fill="#8CD7F8"></path> <path d="M717.604 100.807C719.755 100.807 720.833 103.782 720.833 109.731C720.497 113.938 719.073 117.981 716.698 121.468C713.869 126.207 710.308 130.46 706.142 134.08C701.814 137.899 696.953 141.067 691.713 143.486C686.468 145.935 680.746 147.193 674.959 147.173C672.385 147.312 669.813 146.871 667.432 145.877C665.051 144.89 662.924 143.374 661.204 141.451C657.999 137.909 656.238 133.296 656.265 128.517C656.364 123.106 657.144 117.727 658.592 112.513C660.227 106.648 661.947 100.485 663.755 94.0161C668.663 76.7711 671.18 64.6822 671.309 57.7382C671.428 55.3872 671.031 53.0371 670.149 50.8521C669.739 50.0411 669.094 49.3771 668.297 48.9421C667.503 48.5081 666.594 48.3281 665.692 48.4271C661.818 48.4271 657.687 50.7541 653.297 55.4111C648.399 60.7871 644.23 66.7881 640.899 73.2601C632.477 88.1041 627.637 104.711 626.761 121.76L627.535 127.19C627.799 129.12 627.932 131.064 627.922 133.011C627.827 135.24 627.23 137.421 626.171 139.388C625.116 141.352 623.627 143.052 621.819 144.361C618.044 147.678 613.19 149.503 608.166 149.5C606.779 149.5 605.422 149.083 604.272 148.306C603.122 147.529 602.23 146.423 601.708 145.138C600.188 141.756 599.462 138.076 599.577 134.368C599.835 128.452 600.812 122.591 602.484 116.909C604.421 109.538 606.572 101.713 608.94 93.4362C615.137 71.5782 618.302 55.2821 618.431 44.5461C618.631 40.1431 617.939 35.7441 616.395 31.6121C615.747 30.1061 614.642 28.8451 613.23 28.0071C611.823 27.1721 610.184 26.8022 608.553 26.9592C601.579 26.9592 594.669 31.9382 587.827 41.8972C580.982 51.8562 574.849 67.3101 569.425 88.2631C568.004 93.6941 566.929 98.4161 566.196 102.425L566.003 106.109C567.831 113.761 569.059 121.546 569.683 129.388C569.683 136.892 567.037 141.936 561.742 144.52L554.67 147.756C552.391 148.794 549.914 149.324 547.408 149.307C540.953 149.307 537.723 143.133 537.723 130.779C537.723 118.429 541.058 94.3181 547.73 58.4501C550.186 45.5161 551.41 38.2741 551.41 36.7241C551.41 26.2461 548.764 21.0092 543.469 21.0092C541.702 20.9952 539.976 21.5381 538.531 22.5591C537.045 23.5941 535.559 24.6722 534.073 25.7952C532.591 26.9142 531.051 28.1022 529.46 29.3502C527.88 30.3952 526.024 30.9341 524.131 30.9031C522.13 30.9031 521.129 29.1571 521.129 25.6661C521.136 22.1491 522.052 18.6952 523.782 15.6362C525.512 12.5762 528.002 10.0192 531.007 8.20416C537.72 3.37016 545.827 0.874125 554.09 1.09113C565.711 1.09113 572.556 6.48114 574.622 17.2571C575.138 20.4901 575.528 23.9191 575.786 27.5391C585.341 9.64912 597.413 0.704163 612.006 0.704163C627.996 0.704163 637.07 8.33312 639.22 23.5941C640.018 28.2711 640.343 33.0172 640.191 37.7592V39.3091C648.582 27.6711 658.525 21.8502 670.02 21.8502C686.289 21.8502 694.426 31.6802 694.426 51.3372C694.226 61.4462 692.893 71.5001 690.454 81.3091C687.808 92.7581 685.871 100.97 684.643 105.949C683.595 109.715 682.978 113.585 682.802 117.492C682.802 122.404 684.515 124.863 687.937 124.863C691.356 124.863 699.524 118.137 712.438 104.687C714.85 102.099 716.573 100.807 717.604 100.807Z" fill="#8CD7F8"></path> <path d="M441.71 75.0381C444.939 75.0381 446.618 78.2711 446.618 84.3801C446.452 91.2991 444.983 98.1211 442.29 104.491C439.19 112.072 434.821 119.07 429.38 125.186C423.213 132.181 415.788 137.95 407.491 142.194C397.756 147.092 386.969 149.511 376.081 149.243C364.375 149.382 353.052 145.06 344.409 137.15C335.349 129.067 330.817 117.415 330.817 102.198C330.658 88.1381 332.839 74.1491 337.275 60.8121C341.092 49.2721 346.787 38.4481 354.127 28.7671C360.572 20.2361 368.662 13.0891 377.919 7.75006C385.612 3.07206 394.391 0.484061 403.39 0.250061C417.358 0.250061 424.343 6.48106 424.343 18.9401C424.631 24.9171 423.267 30.8561 420.405 36.1071C417.779 40.4191 415.11 42.5731 412.396 42.5731C410.598 42.5731 408.817 42.1891 407.176 41.4501C405.534 40.7071 404.068 39.6251 402.874 38.2751C401.748 36.9661 400.368 35.8971 398.821 35.1301C397.274 34.3641 395.588 33.9161 393.869 33.8111C390.639 33.8111 381.728 33.4551 374.208 45.5811C371.254 49.5981 369.066 54.1261 367.75 58.9361C363.34 70.2651 361.149 82.3411 361.295 94.5021C362.468 103.263 367.02 111.214 373.981 116.648C378.112 119.521 383.109 120.871 388.119 120.464C397.02 119.477 405.218 115.156 411.073 108.372C415.466 103.65 419.339 99.1891 423.502 94.3731C427.667 89.5561 431.347 85.1261 434.512 81.0521C437.674 76.9781 440.065 75.0381 441.71 75.0381Z" fill="#8CD7F8"></path> </svg> 