<?xml version="1.0" encoding="UTF-8"?>
<svg version="1.1" xmlns="http://www.w3.org/2000/svg" width="1220" height="150">
<path d="M0 0 C86.48487903 0 86.48487903 0 103.1875 15.75 C113.80570883 26.89595281 117.5924298 39.6801203 117.40454102 54.77246094 C117.20323494 60.9178393 116.54017459 66.3437408 114 72 C113.67128906 72.81210938 113.34257813 73.62421875 113.00390625 74.4609375 C109.97209515 81.2798898 104.86483475 89.56758263 98 93 C98.67013395 96.3914178 99.97546055 99.0112775 101.66796875 102.015625 C102.22532715 103.00876709 102.78268555 104.00190918 103.35693359 105.02514648 C103.96102051 106.08934814 104.56510742 107.1535498 105.1875 108.25 C106.11296631 109.89367554 106.11296631 109.89367554 107.05712891 111.57055664 C112.17531439 120.62864496 117.41174574 129.61606247 122.73120117 138.55761719 C123.5719519 139.98122559 123.5719519 139.98122559 124.4296875 141.43359375 C124.92710449 142.26947021 125.42452148 143.10534668 125.93701172 143.96655273 C127 146 127 146 127 148 C120.55945274 148.2286411 114.11995425 148.38597823 107.67626953 148.49438477 C105.48576761 148.53958148 103.29553628 148.60095438 101.10595703 148.67895508 C97.95277232 148.7884506 94.80317944 148.83922919 91.6484375 148.87890625 C90.1855983 148.9485836 90.1855983 148.9485836 88.69320679 149.01966858 C82.04061701 149.02458144 82.04061701 149.02458144 79.13642883 146.16514587 C77.55958981 143.84332303 76.25695448 141.50774427 75 139 C74.34700928 137.88681396 73.69401855 136.77362793 73.02124023 135.62670898 C72.45606689 134.59360596 71.89089355 133.56050293 71.30859375 132.49609375 C70.67373047 131.34302734 70.03886719 130.18996094 69.38476562 129.00195312 C68.73536635 127.81397189 68.08627946 126.62581984 67.4375 125.4375 C65.5345089 121.96059936 63.62550416 118.48886506 61.66748047 115.04248047 C60 112 60 112 58.91455078 109.41455078 C57.87799812 106.8629817 57.87799812 106.8629817 55 104 C48.07 103.505 48.07 103.505 41 103 C41 117.85 41 132.7 41 148 C27.47 148 13.94 148 0 148 C0 99.16 0 50.32 0 0 Z M41 36 C41 46.23 41 56.46 41 67 C47.5278125 67.12375 47.5278125 67.12375 54.1875 67.25 C56.23360474 67.30462402 56.23360474 67.30462402 58.32104492 67.36035156 C59.40490479 67.3703418 60.48876465 67.38033203 61.60546875 67.390625 C62.71043701 67.41157227 63.81540527 67.43251953 64.95385742 67.45410156 C68.69359246 66.89660319 70.30659299 65.59533875 73 63 C75.94395195 58.36076921 76.51592508 52.90963152 75.56640625 47.5546875 C74.12738141 42.62785668 72.54670881 39.72802529 68 37 C64.8815675 35.9605225 62.72524414 35.88505162 59.45703125 35.90234375 C58.48999268 35.90484131 57.5229541 35.90733887 56.52661133 35.90991211 C55.30095459 35.91901611 54.07529785 35.92812012 52.8125 35.9375 C48.914375 35.958125 45.01625 35.97875 41 36 Z " fill="#21C2B4" transform="translate(851,1)"/>
<path d="M0 0 C5.9228526 5.12034533 10.24773587 10.20621799 13 17.5625 C12.33097656 18.06136719 11.66195312 18.56023438 10.97265625 19.07421875 C9.53212891 20.15123047 9.53212891 20.15123047 8.0625 21.25 C7.54051025 21.63921631 7.01852051 22.02843262 6.48071289 22.42944336 C3.13242695 24.93497989 -0.18277036 27.47785396 -3.4765625 30.0546875 C-4.23590088 30.64548096 -4.99523926 31.23627441 -5.77758789 31.8449707 C-7.289167 33.02254558 -8.79626028 34.20590357 -10.29858398 35.39526367 C-11.34381226 36.2070105 -11.34381226 36.2070105 -12.41015625 37.03515625 C-13.03027588 37.52250244 -13.65039551 38.00984863 -14.28930664 38.51196289 C-16 39.5625 -16 39.5625 -19 39.5625 C-19.91951576 38.16619829 -20.83356211 36.76596867 -21.71875 35.34765625 C-26.86555268 28.17665373 -34.26436726 24.24122178 -42.5625 21.8125 C-51.58826903 20.8867801 -59.62092779 21.94615268 -67.25 27.1875 C-76.10804493 34.43499131 -79.70062761 44.17381411 -80.875 55.25 C-81.45718518 66.73267368 -79.19304941 77.41536691 -72 86.5625 C-65.43427259 93.67159795 -57.82132552 96.16783386 -48.3125 96.8125 C-37.58294559 96.60812754 -27.54472725 92.10722725 -20 84.5625 C-27.59 84.2325 -35.18 83.9025 -43 83.5625 C-43 73.6625 -43 63.7625 -43 53.5625 C-22.87 53.5625 -2.74 53.5625 18 53.5625 C18 79.6325 18 105.7025 18 132.5625 C6.78 132.5625 -4.44 132.5625 -16 132.5625 C-16.33 129.2625 -16.66 125.9625 -17 122.5625 C-18.258125 123.47 -19.51625 124.3775 -20.8125 125.3125 C-34.63519239 134.56408051 -52.33623573 135.84587657 -68.4296875 132.87890625 C-86.31905236 128.39726703 -102.52955636 118.05242753 -112.19921875 102.046875 C-123.20837054 82.76267383 -126.75009371 59.11547616 -121.5 37.375 C-115.00456767 17.45869181 -101.91905122 1.74606311 -83.375 -8.1875 C-56.55448573 -21.15510254 -23.58526782 -18.48575045 0 0 Z " fill="#003A4B" transform="translate(123,15.4375)"/>
<path d="M0 0 C1.5612561 -0.02126953 1.5612561 -0.02126953 3.15405273 -0.04296875 C13.6439457 0.02312493 23.25296592 2.19896933 32.5625 7.0625 C33.24062744 7.41135254 33.91875488 7.76020508 34.61743164 8.11962891 C53.13524101 17.93964592 64.9687021 34.39663597 71.47265625 53.99609375 C76.77548523 72.56672965 74.89430424 92.0001113 66.4375 109.375 C55.45537544 128.5756948 39.27016222 142.10718058 17.8046875 148.01171875 C11.5330662 149.51686902 5.55702424 149.87670988 -0.875 149.8125 C-1.96731934 149.80347656 -3.05963867 149.79445312 -4.18505859 149.78515625 C-24.99680566 149.34110653 -41.2569526 141.07010845 -55.5625 126.375 C-56.23925781 125.69566406 -56.91601562 125.01632813 -57.61328125 124.31640625 C-72.0335048 108.93696606 -76.11243095 89.63227339 -75.83203125 69.25390625 C-75.2627667 51.66839886 -67.00212412 33.79536774 -54.5625 21.375 C-38.66730829 7.04362095 -21.38778325 0.22594386 0 0 Z M-25.25 47.15625 C-32.59340387 56.11520273 -35.20447785 67.2070664 -34.30859375 78.60546875 C-32.80058387 90.1940492 -29.58022496 99.5462559 -20.5625 107.375 C-15.59092973 110.58964189 -10.5318061 112.98569743 -4.5625 113.375 C-3.325 113.4575 -2.0875 113.54 -0.8125 113.625 C7.54945743 113.4968474 15.21159319 110.4615912 21.21484375 104.65625 C29.97062603 95.32662152 32.95610682 84.09190944 32.68359375 71.4921875 C31.77771073 60.01766928 27.9397832 51.33460495 19.5 43.5 C5.71838625 32.13805889 -13.26340477 34.50373282 -25.25 47.15625 Z " fill="#21C1B4" transform="translate(616.5625,-0.375)"/>
<path d="M0 0 C13.53 0 27.06 0 41 0 C41.02578125 5.8059375 41.0515625 11.611875 41.078125 17.59375 C41.10333388 21.30342765 41.12969781 25.013027 41.16015625 28.72265625 C41.20824177 34.59228664 41.25237901 40.46173546 41.27099609 46.33154297 C41.2863 51.07154622 41.32098363 55.81106977 41.36830902 60.55085754 C41.38298279 62.34621476 41.39103282 64.14164052 41.39188385 65.9370575 C41.33392651 87.07202063 41.33392651 87.07202063 50.42578125 105.51953125 C55.47831039 110.27116535 59.51330192 111.73179246 66.25 112.25 C73.46251273 111.76916582 78.30494588 110.20553396 83.375 104.875 C86.91497983 100.55383178 88.80230202 96.42428505 90 91 C90.25577065 89.95807243 90.25577065 89.95807243 90.51670837 88.89509583 C91.14882646 85.10847441 91.17729893 81.36578468 91.20532227 77.5378418 C91.21522186 76.6983046 91.22512146 75.8587674 91.23532104 74.99378967 C91.26681598 72.22896103 91.29164585 69.46411522 91.31640625 66.69921875 C91.33698615 64.77821923 91.3579829 62.85722412 91.37937927 60.93623352 C91.43449292 55.88764027 91.48394932 50.83900687 91.53222656 45.79034424 C91.59136713 39.72879408 91.65753606 33.66731705 91.72252655 27.60582733 C91.82040131 18.40392967 91.90934956 9.20198444 92 0 C105.53 0 119.06 0 133 0 C133.16043524 21.98854058 133.16043524 21.98854058 133.1953125 31.46875 C133.21908694 37.90020189 133.24699944 44.33142283 133.30175781 50.76269531 C133.34569457 55.95637136 133.36923646 61.14979923 133.37950897 66.343647 C133.38681554 68.31048099 133.40107915 70.27730371 133.42292023 72.24403 C133.65337318 93.88572291 131.03160411 114.6062015 115.23828125 130.82421875 C114.49964844 131.54222656 113.76101563 132.26023438 113 133 C112.37480469 133.64582031 111.74960937 134.29164063 111.10546875 134.95703125 C99.29363886 146.37098898 82.5343804 149.58012192 66.6875 149.4375 C65.50414062 149.42992676 64.32078125 149.42235352 63.1015625 149.41455078 C45.23685032 149.07872949 30.62940418 143.72172665 17.796875 131.04296875 C0.96795091 113.38629907 -0.32723964 89.69180043 -0.1953125 66.69921875 C-0.19157425 64.76723885 -0.18873112 62.83525703 -0.18673706 60.90327454 C-0.1791645 55.86128341 -0.15957209 50.81941072 -0.1373291 45.77746582 C-0.11309946 39.7049428 -0.10405928 33.63237979 -0.09242249 27.55982208 C-0.07314297 18.37313279 -0.03477616 9.18670247 0 0 Z " fill="#21C2B4" transform="translate(703,1)"/>
<path d="M0 0 C1.13795344 0.00138269 1.13795344 0.00138269 2.29889584 0.00279331 C3.16692837 0.00141865 4.0349609 0.00004398 4.92929745 -0.00137234 C5.88882824 0.00222294 6.84835903 0.00581821 7.83696651 0.00952244 C8.84173031 0.00937641 9.8464941 0.00923038 10.88170528 0.00907993 C14.22024817 0.00977953 17.55873604 0.01757409 20.89726925 0.02539158 C23.20512518 0.02725559 25.51298151 0.02867957 27.82083797 0.0296793 C33.90854126 0.03350578 39.99622086 0.04333718 46.08391476 0.05438328 C52.29057654 0.0645946 58.49724212 0.06917632 64.70390987 0.0742197 C76.89207302 0.08495933 89.08021234 0.10255718 101.268363 0.12304783 C101.268363 12.00304783 101.268363 23.88304783 101.268363 36.12304783 C80.808363 36.12304783 60.348363 36.12304783 39.268363 36.12304783 C39.268363 42.72304783 39.268363 49.32304783 39.268363 56.12304783 C56.758363 56.12304783 74.248363 56.12304783 92.268363 56.12304783 C92.268363 67.34304783 92.268363 78.56304783 92.268363 90.12304783 C74.778363 90.12304783 57.288363 90.12304783 39.268363 90.12304783 C39.268363 97.38304783 39.268363 104.64304783 39.268363 112.12304783 C60.388363 112.12304783 81.508363 112.12304783 103.268363 112.12304783 C103.268363 124.00304783 103.268363 135.88304783 103.268363 148.12304783 C68.288363 148.12304783 33.308363 148.12304783 -2.731637 148.12304783 C-2.77194004 111.2995089 -2.77194004 111.2995089 -2.78046513 95.9179697 C-2.7864084 85.27986261 -2.79341084 74.64176341 -2.80707645 64.00366306 C-2.81702248 56.25743556 -2.82349023 48.51121444 -2.8257255 40.76498073 C-2.82703274 36.66083864 -2.83011947 32.5567148 -2.83736706 28.45257854 C-2.84412599 24.59410142 -2.84625422 20.73565018 -2.84474468 16.8771677 C-2.84502107 15.45692333 -2.84702695 14.03667814 -2.85084248 12.61643887 C-2.85577767 10.68562913 -2.85403504 8.75480568 -2.85189152 6.82399082 C-2.85281331 5.74088407 -2.8537351 4.65777731 -2.85468483 3.54184914 C-2.684209 0.19073633 -2.684209 0.19073633 0 0 Z " fill="#00394C" transform="translate(157.7316370010376,0.8769521713256836)"/>
<path d="M0 0 C34.32 0 68.64 0 104 0 C104 11.88 104 23.76 104 36 C83.21 36 62.42 36 41 36 C41 42.6 41 49.2 41 56 C58.82 56 76.64 56 95 56 C95 67.22 95 78.44 95 90 C77.18 90 59.36 90 41 90 C41 97.26 41 104.52 41 112 C62.45 112 83.9 112 106 112 C106 123.88 106 135.76 106 148 C71.02 148 36.04 148 0 148 C0 99.16 0 50.32 0 0 Z " fill="#21C2B4" transform="translate(1114,1)"/>
<path d="M0 0 C1.57249512 0.01353516 1.57249512 0.01353516 3.17675781 0.02734375 C21.75320062 0.43674194 38.9822159 6.93655703 55.375 15.4375 C54.77134018 19.30275081 53.60790304 22.28876629 51.79296875 25.74609375 C51.27283203 26.74060547 50.75269531 27.73511719 50.21679688 28.75976562 C49.67087891 29.78779297 49.12496094 30.81582031 48.5625 31.875 C48.02818359 32.89916016 47.49386719 33.92332031 46.94335938 34.97851562 C44.31113367 39.98071576 41.64378945 44.82320399 38.375 49.4375 C35.05034417 48.80623623 32.15435719 47.4778783 29.09570312 46.06274414 C17.7230133 40.81748698 4.47201756 34.83835213 -8.125 38.4375 C-8.95 38.7675 -9.775 39.0975 -10.625 39.4375 C-11.48150653 42.23795046 -11.48150653 42.23795046 -11.625 45.4375 C-8.94949992 48.76925482 -6.34366464 50.23449163 -2.375 51.6875 C-1.23289062 52.10902344 -0.09078125 52.53054687 1.0859375 52.96484375 C4.38551005 54.12009555 7.70827282 55.19230656 11.0390625 56.25390625 C47.27418855 67.84580083 47.27418855 67.84580083 55.8125 83.4375 C61.12027358 95.79806862 60.84403596 109.85269474 56.375 122.4375 C51.67455857 133.10516849 44.39413942 140.90815292 33.66796875 145.62890625 C6.55641353 155.90475445 -24.48024955 151.01651488 -50.50390625 139.61425781 C-60.26297438 135.16155124 -60.26297438 135.16155124 -61.625 132.4375 C-60.50097656 129.7512207 -60.50097656 129.7512207 -58.765625 126.36328125 C-58.46058044 125.7612236 -58.15553589 125.15916595 -57.84124756 124.53886414 C-56.85994927 122.60534157 -55.86797268 120.67754934 -54.875 118.75 C-53.89830363 116.83935583 -52.92390882 114.92757435 -51.95159912 113.01469421 C-51.06081314 111.26456262 -50.16386966 109.51756912 -49.26660156 107.77075195 C-47.5897854 104.36599718 -46.08934439 100.93766055 -44.625 97.4375 C-40.89600688 98.85320385 -37.33433679 100.51771704 -33.74926758 102.25561523 C-21.95326862 107.95672939 -10.79300027 112.55322354 2.5 112.625 C3.69882813 112.63917969 4.89765625 112.65335937 6.1328125 112.66796875 C9.20251346 112.44976109 10.89810204 112.22110356 13.375 110.4375 C14.68956447 107.52407081 14.68956447 107.52407081 13.5 105 C7.36532661 97.60230561 -5.38548248 95.80374448 -14.32128906 93.01831055 C-28.35260039 88.62600772 -42.7873948 83.21767978 -51.02734375 70.2265625 C-54.5506486 63.48087564 -54.83343457 57.7527114 -54.875 50.3125 C-54.895625 49.41273437 -54.91625 48.51296875 -54.9375 47.5859375 C-55.01162609 34.68799857 -50.27186446 24.23262088 -41.625 14.75 C-30.43049394 4.10202707 -15.1246767 -0.15811488 0 0 Z " fill="#21C1B4" transform="translate(1042.625,-0.4375)"/>
<path d="M0 0 C1.18335938 0.474375 2.36671875 0.94875 3.5859375 1.4375 C13.99232499 6.1327898 27.09879882 15.15941217 32 26 C31.71708246 28.66219655 31.29930028 29.73184842 29.28515625 31.53637695 C28.55167969 32.01550537 27.81820312 32.49463379 27.0625 32.98828125 C26.24910156 33.53033203 25.43570313 34.07238281 24.59765625 34.63085938 C23.74042969 35.18580078 22.88320313 35.74074219 22 36.3125 C20.33134901 37.40974866 18.66467543 38.51001044 17 39.61328125 C16.17371094 40.15936035 15.34742188 40.70543945 14.49609375 41.26806641 C11.16255517 43.58106745 8.03155322 46.1139052 4.91015625 48.70385742 C3 50 3 50 0 50 C-1.359375 48.20703125 -1.359375 48.20703125 -2.75 45.8125 C-7.7635553 38.02314701 -13.01234555 35.46357528 -22.015625 33.50390625 C-31.75573685 31.85930621 -40.53744436 33.25396695 -48.75 39 C-55.88383677 44.98484713 -60.11817367 53.77581668 -61 63 C-61.81839433 76.49606656 -60.12126806 86.98778875 -52 98 C-45.77906099 104.79297938 -38.39152847 107.73042358 -29.25 108.1875 C-20.43069877 108.005829 -12.93531509 105.59753858 -6 100 C-3.67015706 97.16064866 -1.76021923 94.21991323 0 91 C4.2149623 92.5358725 7.98862838 94.63068347 11.83203125 96.9140625 C12.46864182 97.28856537 13.10525238 97.66306824 13.76115417 98.04891968 C15.78021148 99.23768767 17.79637914 100.43126006 19.8125 101.625 C21.18666051 102.43521553 22.56100756 103.24511477 23.93554688 104.0546875 C27.29253471 106.03280401 30.64694066 108.01523229 34 110 C27.76333115 124.81060618 16.65426235 133.64159292 2.04711914 139.74291992 C-16.35615019 146.99269269 -39.13567358 148.41303715 -57.50390625 140.48828125 C-64.71943063 137.16209115 -70.96471 133.14257002 -77 128 C-77.99 127.278125 -78.98 126.55625 -80 125.8125 C-93.96837482 113.85063206 -102.52511383 93.8505839 -104.20263672 75.82226562 C-105.56078144 54.22728118 -98.4267243 34.88165871 -84.5 18.4375 C-63.66765387 -3.65932845 -28.30809927 -11.35026415 0 0 Z " fill="#21C1B4" transform="translate(506,4)"/>
<path d="M0 0 C1.38130679 0.00138269 1.38130679 0.00138269 2.79051876 0.00279331 C3.84366268 0.00141865 4.8968066 0.00004398 5.98186398 -0.00137234 C7.72973454 0.00402058 7.72973454 0.00402058 9.51291561 0.00952244 C10.73225796 0.00937641 11.9516003 0.00923038 13.20789242 0.00907993 C16.56105596 0.0096589 19.91415859 0.01468815 23.26731133 0.02165389 C26.76803646 0.027888 30.26876233 0.02849127 33.76949215 0.0296793 C40.4028774 0.03279245 47.03624625 0.04100561 53.66962427 0.05102879 C61.21968292 0.06219044 68.76974233 0.06770051 76.31980717 0.07272422 C91.85480952 0.08318824 107.38978927 0.10153351 122.92478085 0.12304783 C122.92478085 12.00304783 122.92478085 23.88304783 122.92478085 36.12304783 C109.06478085 36.12304783 95.20478085 36.12304783 80.92478085 36.12304783 C80.92478085 73.08304783 80.92478085 110.04304783 80.92478085 148.12304783 C67.39478085 148.12304783 53.86478085 148.12304783 39.92478085 148.12304783 C39.92478085 111.16304783 39.92478085 74.20304783 39.92478085 36.12304783 C25.73478085 36.12304783 11.54478085 36.12304783 -3.07521915 36.12304783 C-3.09584415 30.36867283 -3.11646915 24.61429783 -3.13771915 18.68554783 C-3.14682316 16.86740574 -3.15592716 15.04926365 -3.16530704 13.17602634 C-3.16822627 11.74300301 -3.17077481 10.30997885 -3.1728754 8.87695408 C-3.17799137 8.12635715 -3.18310734 7.37576023 -3.18837833 6.60241795 C-3.18868908 4.77557182 -3.13753029 2.948831 -3.07521915 1.12304783 C-2.07521915 0.12304783 -2.07521915 0.12304783 0 0 Z " fill="#00394C" transform="translate(274.0752191543579,0.8769521713256836)"/>
</svg>
