<?xml version="1.0" encoding="UTF-8"?> <svg xmlns="http://www.w3.org/2000/svg" xmlns:xlink="http://www.w3.org/1999/xlink" xml:space="preserve" width="444px" height="234px" version="1.1" style="shape-rendering:geometricPrecision; text-rendering:geometricPrecision; image-rendering:optimizeQuality; fill-rule:evenodd; clip-rule:evenodd" viewBox="0 0 19.7 10.39"> <defs> <style type="text/css"> .fil5 {fill:#FEFEFE} .fil1 {fill:#FBBA00} .fil4 {fill:#E41D36} .fil3 {fill:#3D935E} .fil2 {fill:#008FCA} .fil0 {fill:#434242;fill-rule:nonzero} </style> </defs> <g id="Layer_x0020_1"> <metadata id="CorelCorpID_0Corel-Layer"></metadata> <g id="_2132611790912"> <path class="fil0" d="M1.54 8.36c0,-0.21 -0.05,-0.37 -0.14,-0.5 -0.1,-0.13 -0.24,-0.19 -0.42,-0.19 -0.06,0 -0.12,0 -0.17,0.01 -0.05,0 -0.1,0.01 -0.13,0.01l0 1.23c0.04,0.03 0.1,0.05 0.17,0.07 0.07,0.02 0.14,0.03 0.21,0.03 0.32,0 0.48,-0.22 0.48,-0.66zm0.7 -0.01c0,0.18 -0.03,0.35 -0.07,0.5 -0.05,0.16 -0.12,0.29 -0.2,0.4 -0.09,0.11 -0.2,0.19 -0.33,0.25 -0.13,0.06 -0.29,0.09 -0.46,0.09 -0.09,0 -0.18,-0.01 -0.26,-0.02 -0.08,-0.02 -0.16,-0.05 -0.24,-0.08l0 0.9 -0.68 0 0 -3.16c0.06,-0.02 0.13,-0.04 0.21,-0.06 0.08,-0.01 0.16,-0.03 0.25,-0.04 0.09,-0.01 0.17,-0.02 0.26,-0.03 0.09,-0.01 0.18,-0.01 0.26,-0.01 0.2,0 0.38,0.03 0.53,0.09 0.16,0.06 0.29,0.14 0.4,0.25 0.1,0.11 0.18,0.24 0.24,0.39 0.06,0.16 0.09,0.33 0.09,0.53zm1.77 -0.6c-0.06,-0.02 -0.13,-0.03 -0.21,-0.05 -0.09,-0.02 -0.17,-0.03 -0.27,-0.03 -0.04,0 -0.09,0.01 -0.15,0.02 -0.06,0 -0.11,0.01 -0.14,0.02l0 1.84 -0.68 0 0 -2.28c0.12,-0.04 0.27,-0.08 0.43,-0.12 0.17,-0.04 0.36,-0.06 0.56,-0.06 0.04,0 0.08,0.01 0.13,0.01 0.05,0 0.11,0.01 0.16,0.02 0.05,0.01 0.1,0.01 0.15,0.03 0.05,0.01 0.1,0.02 0.14,0.03l-0.12 0.57zm2.53 0.59c0,0.19 -0.03,0.36 -0.08,0.52 -0.06,0.16 -0.14,0.29 -0.24,0.4 -0.1,0.11 -0.23,0.2 -0.37,0.26 -0.15,0.06 -0.31,0.09 -0.49,0.09 -0.18,0 -0.34,-0.03 -0.48,-0.09 -0.15,-0.06 -0.27,-0.15 -0.37,-0.26 -0.11,-0.11 -0.19,-0.24 -0.25,-0.4 -0.05,-0.16 -0.08,-0.33 -0.08,-0.52 0,-0.19 0.03,-0.36 0.09,-0.52 0.06,-0.15 0.14,-0.28 0.24,-0.39 0.11,-0.11 0.23,-0.2 0.38,-0.26 0.14,-0.06 0.3,-0.09 0.47,-0.09 0.17,0 0.33,0.03 0.48,0.09 0.14,0.06 0.27,0.15 0.37,0.26 0.11,0.11 0.19,0.24 0.24,0.39 0.06,0.16 0.09,0.33 0.09,0.52zm-0.69 0c0,-0.21 -0.05,-0.37 -0.13,-0.49 -0.08,-0.13 -0.2,-0.19 -0.36,-0.19 -0.15,0 -0.27,0.06 -0.36,0.19 -0.09,0.12 -0.13,0.28 -0.13,0.49 0,0.21 0.04,0.38 0.13,0.5 0.09,0.13 0.21,0.19 0.36,0.19 0.16,0 0.28,-0.06 0.36,-0.19 0.08,-0.12 0.13,-0.29 0.13,-0.5zm1.6 -0.01c0,0.21 0.04,0.38 0.14,0.51 0.09,0.12 0.23,0.19 0.42,0.19 0.06,0 0.12,-0.01 0.17,-0.01 0.05,0 0.09,-0.01 0.13,-0.02l0 -1.23c-0.05,-0.03 -0.1,-0.06 -0.17,-0.07 -0.07,-0.02 -0.14,-0.03 -0.21,-0.03 -0.32,0 -0.48,0.22 -0.48,0.66zm1.54 1.14c-0.06,0.02 -0.13,0.04 -0.21,0.05 -0.08,0.02 -0.16,0.03 -0.25,0.05 -0.09,0.01 -0.18,0.02 -0.27,0.03 -0.09,0 -0.17,0.01 -0.25,0.01 -0.2,0 -0.38,-0.03 -0.54,-0.09 -0.15,-0.06 -0.28,-0.14 -0.39,-0.25 -0.11,-0.11 -0.19,-0.24 -0.24,-0.39 -0.06,-0.16 -0.09,-0.33 -0.09,-0.52 0,-0.2 0.03,-0.37 0.08,-0.53 0.04,-0.16 0.11,-0.29 0.21,-0.4 0.09,-0.11 0.2,-0.19 0.33,-0.25 0.13,-0.06 0.29,-0.09 0.46,-0.09 0.09,0 0.18,0.01 0.25,0.03 0.08,0.02 0.15,0.04 0.23,0.08l0 -1.09 0.68 -0.11 0 3.47zm1.36 -0.4c0.06,0 0.13,0 0.19,0 0.06,0 0.11,-0.01 0.15,-0.02l0 -0.51c-0.03,-0.01 -0.07,-0.01 -0.13,-0.02 -0.05,-0.01 -0.1,-0.01 -0.15,-0.01 -0.06,0 -0.12,0 -0.18,0.01 -0.06,0.01 -0.11,0.02 -0.15,0.05 -0.04,0.02 -0.07,0.05 -0.1,0.08 -0.02,0.04 -0.03,0.08 -0.03,0.14 0,0.11 0.03,0.18 0.1,0.22 0.07,0.04 0.17,0.06 0.3,0.06zm-0.06 -1.99c0.2,0 0.37,0.02 0.51,0.07 0.13,0.04 0.24,0.11 0.32,0.19 0.08,0.09 0.14,0.19 0.17,0.32 0.03,0.12 0.05,0.25 0.05,0.4l0 1.42c-0.1,0.02 -0.23,0.05 -0.41,0.08 -0.17,0.02 -0.38,0.04 -0.63,0.04 -0.15,0 -0.29,-0.02 -0.42,-0.04 -0.13,-0.03 -0.24,-0.07 -0.33,-0.14 -0.09,-0.06 -0.16,-0.14 -0.21,-0.24 -0.05,-0.1 -0.07,-0.23 -0.07,-0.37 0,-0.14 0.03,-0.26 0.08,-0.36 0.06,-0.1 0.13,-0.17 0.23,-0.23 0.09,-0.06 0.2,-0.1 0.32,-0.13 0.13,-0.02 0.25,-0.04 0.38,-0.04 0.09,0 0.17,0.01 0.24,0.01 0.07,0.01 0.12,0.02 0.17,0.03l0 -0.06c0,-0.12 -0.04,-0.21 -0.11,-0.28 -0.07,-0.07 -0.19,-0.1 -0.37,-0.1 -0.11,0 -0.23,0 -0.34,0.02 -0.11,0.02 -0.21,0.04 -0.29,0.07l-0.09 -0.55c0.04,-0.01 0.09,-0.02 0.15,-0.04 0.06,-0.01 0.13,-0.02 0.2,-0.03 0.07,-0.01 0.14,-0.02 0.22,-0.03 0.07,-0.01 0.15,-0.01 0.23,-0.01zm2.79 1.19c0,-0.22 -0.03,-0.37 -0.09,-0.46 -0.05,-0.1 -0.15,-0.14 -0.29,-0.14 -0.04,0 -0.08,0 -0.13,0.01 -0.04,0 -0.09,0.01 -0.13,0.01l0 1.86 -0.68 0 0 -2.32c0.05,-0.02 0.12,-0.04 0.2,-0.05 0.08,-0.02 0.16,-0.03 0.25,-0.05 0.08,-0.01 0.17,-0.02 0.26,-0.03 0.1,-0.01 0.19,-0.01 0.27,-0.01 0.18,0 0.32,0.02 0.43,0.06 0.11,0.05 0.19,0.1 0.26,0.16 0.1,-0.07 0.21,-0.12 0.34,-0.16 0.13,-0.04 0.24,-0.06 0.35,-0.06 0.19,0 0.35,0.03 0.47,0.08 0.13,0.05 0.23,0.13 0.3,0.22 0.07,0.1 0.12,0.22 0.15,0.35 0.03,0.14 0.04,0.29 0.04,0.45l0 1.36 -0.68 0 0 -1.28c0,-0.22 -0.03,-0.37 -0.08,-0.46 -0.06,-0.1 -0.16,-0.14 -0.3,-0.14 -0.03,0 -0.08,0.01 -0.15,0.03 -0.06,0.01 -0.12,0.04 -0.16,0.07 0.02,0.07 0.03,0.14 0.04,0.22 0.01,0.07 0.01,0.16 0.01,0.25l0 1.31 -0.68 0 0 -1.28zm4.47 1.2c-0.11,0.03 -0.26,0.06 -0.45,0.09 -0.18,0.03 -0.37,0.04 -0.57,0.04 -0.21,0 -0.38,-0.02 -0.51,-0.08 -0.14,-0.05 -0.25,-0.13 -0.33,-0.23 -0.07,-0.1 -0.13,-0.22 -0.16,-0.35 -0.04,-0.14 -0.05,-0.29 -0.05,-0.46l0 -1.34 0.68 0 0 1.26c0,0.22 0.03,0.38 0.08,0.48 0.06,0.09 0.17,0.14 0.33,0.14 0.05,0 0.1,0 0.15,0 0.06,-0.01 0.11,-0.01 0.15,-0.02l0 -1.86 0.68 0 0 2.33zm1.13 -0.41c0.13,0 0.22,-0.01 0.27,-0.04 0.05,-0.02 0.07,-0.07 0.07,-0.14 0,-0.05 -0.03,-0.1 -0.1,-0.14 -0.06,-0.04 -0.16,-0.09 -0.3,-0.14 -0.11,-0.04 -0.21,-0.08 -0.29,-0.13 -0.09,-0.04 -0.16,-0.09 -0.22,-0.15 -0.07,-0.06 -0.11,-0.13 -0.15,-0.21 -0.03,-0.08 -0.05,-0.18 -0.05,-0.3 0,-0.22 0.09,-0.4 0.26,-0.53 0.16,-0.14 0.39,-0.2 0.69,-0.2 0.14,0 0.28,0.01 0.42,0.04 0.13,0.02 0.24,0.05 0.32,0.08l-0.12 0.53c-0.08,-0.02 -0.17,-0.05 -0.26,-0.07 -0.09,-0.02 -0.2,-0.03 -0.31,-0.03 -0.22,0 -0.32,0.06 -0.32,0.18 0,0.02 0,0.05 0.01,0.07 0.01,0.02 0.03,0.04 0.05,0.06 0.03,0.02 0.07,0.04 0.12,0.07 0.04,0.02 0.1,0.04 0.18,0.07 0.15,0.06 0.27,0.11 0.37,0.17 0.09,0.05 0.17,0.11 0.23,0.17 0.05,0.06 0.09,0.13 0.12,0.21 0.02,0.07 0.03,0.16 0.03,0.26 0,0.24 -0.09,0.42 -0.27,0.54 -0.17,0.12 -0.43,0.18 -0.75,0.18 -0.22,0 -0.39,-0.02 -0.54,-0.05 -0.14,-0.04 -0.24,-0.07 -0.29,-0.09l0.11 -0.56c0.12,0.05 0.24,0.08 0.36,0.11 0.12,0.03 0.24,0.04 0.36,0.04z"></path> <circle class="fil1" cx="7.3" cy="2.21" r="2.21"></circle> <circle class="fil2" cx="2.21" cy="2.21" r="2.21"></circle> <circle class="fil3" cx="12.4" cy="2.21" r="2.21"></circle> <circle class="fil4" cx="17.49" cy="2.21" r="2.21"></circle> <rect class="fil5" x="11.19" y="1.16" width="2.41" height="0.79" rx="0.08" ry="0.08"></rect> <rect class="fil5" x="11.19" y="2.47" width="2.41" height="0.79" rx="0.08" ry="0.08"></rect> <rect class="fil5" x="16.29" y="1.82" width="2.41" height="0.79" rx="0.08" ry="0.08"></rect> <rect class="fil5" transform="matrix(2.42346E-14 -0.915048 0.9071 2.40241E-14 17.1009 3.4122)" width="2.63" height="0.87" rx="0.09" ry="0.09"></rect> <rect class="fil5" x="6.1" y="1.82" width="2.41" height="0.79" rx="0.08" ry="0.08"></rect> <rect class="fil5" transform="matrix(0.647037 -0.647037 0.641417 0.641417 1.07868 2.78184)" width="2.63" height="0.87" rx="0.09" ry="0.09"></rect> <rect class="fil5" transform="matrix(-0.647037 -0.647037 0.641417 -0.641417 2.78173 3.33714)" width="2.63" height="0.87" rx="0.09" ry="0.09"></rect> </g> </g> </svg> 